<?xml version="1.0" standalone="no"?>
<!DOCTYPE svg PUBLIC "-//W3C//DTD SVG 20010904//EN"
 "http://www.w3.org/TR/2001/REC-SVG-20010904/DTD/svg10.dtd">
<svg version="1.0" xmlns="http://www.w3.org/2000/svg"
 width="260.000000pt" height="260.000000pt" viewBox="0 0 260.000000 260.000000"
 preserveAspectRatio="xMidYMid meet">
<metadata>
Created by potrace 1.14, written by Peter Selinger 2001-2017
</metadata>
<g transform="translate(0.000000,260.000000) scale(0.100000,-0.100000)"
fill="#000000" stroke="none">
<path d="M834 2083 c-152 -35 -273 -151 -314 -303 -17 -64 -17 -897 0 -960 39
-144 155 -261 298 -300 30 -7 182 -11 480 -11 365 0 447 2 494 15 133 36 241
145 287 288 18 53 18 905 1 968 -42 155 -187 289 -332 306 -106 12 -857 10
-914 -3z"/>
</g>
</svg>
